<?xml version="1.0" encoding="utf-8"?>
<!-- Generator: Adobe Illustrator 25.0.1, SVG Export Plug-In . SVG Version: 6.00 Build 0)  -->
<svg version="1.1" xmlns="http://www.w3.org/2000/svg" xmlns:xlink="http://www.w3.org/1999/xlink" x="0px" y="0px"
	 viewBox="0 0 500 130" style="enable-background:new 0 0 500 130;" xml:space="preserve">
<style type="text/css">
	.st0{display:none;}
	.st1{display:inline;fill:#4C3C90;}
	.st2{display:inline;enable-background:new    ;}
	.st3{fill:#4C3C90;}
	.st4{display:inline;}
	.st5{fill-rule:evenodd;clip-rule:evenodd;fill:#3B58A8;}
	.st6{fill:#3B58A8;}
	.st7{fill:none;}
</style>
<g id="Layer_1" class="st0">
	<path class="st1" d="M14,54.3h13.6c6.1,0,8.2,0.2,10,0.9c3.4,1.6,5.4,4.8,5.4,8.6c0,3.6-1.1,5.4-4.7,7.2c3.8,1.3,6.3,4.8,5.9,8.8
		c0,5.9-4.7,9.9-11.5,9.9H14v-5.7h2.7V60H14L14,54.3L14,54.3z M24.1,60v8.6h7c2.5,0.2,4.8-1.6,5-4.1c0-0.2,0-0.4,0-0.4
		c0-2.3-2.3-4.1-5.6-4.1H24.1L24.1,60z M24.1,74.2v9.7h7.5c2.9,0.2,5.4-1.8,5.6-4.7c0,0,0,0,0-0.2c0-3-2.5-5-6.3-5L24.1,74.2
		L24.1,74.2z"/>
	<path class="st1" d="M74.1,80.8c-1.3,5.9-6.1,9.5-12.5,9.5c-7.5,0-13.1-5.9-13.1-14.2S54,62,61.5,62c4.1,0,8.1,2,10.4,5.6
		c1.8,3,2.9,6.5,2.7,10H55.2c0.7,7,5.2,7.3,6.5,7.3c2.5,0.2,4.8-1.6,5.6-3.9L74.1,80.8L74.1,80.8z M67.2,72.9c0-3-2.5-5.4-5.4-5.4
		h-0.2c-3,0-5.6,2.3-6.1,5.2L67.2,72.9L67.2,72.9z"/>
	<path class="st1" d="M96.5,72h12.4v17.6h-3.9V84c-0.7,1.3-1.6,2.3-2.7,3.4c-2.3,2-5.2,3-8.1,3c-8.2,0-14.7-8.1-14.7-18.5
		s6.5-18.6,14.5-18.6c4.5-0.2,8.4,2.3,10.6,6.1v-5.6h3.8v11.3h-3.9c-0.4-1.6-1.1-3-2-4.3c-1.8-2.3-4.7-3.8-7.5-3.9
		c-4.3,0-10.8,3.8-10.8,14.7c0,8.6,4.7,14.9,10.8,14.9c4.8-0.2,8.8-3.8,9.7-8.4c0.2-0.9,0.2-2,0.2-2.9h-8.4L96.5,72L96.5,72z"/>
	<path class="st1" d="M138.9,89.7h-7.7v-4.8c-1.8,3.4-5.4,5.4-9.1,5.4c-4.5,0.4-8.4-3.2-8.8-7.7c0-0.2,0-0.4,0-0.5
		c0-5.2,4.5-7.7,15.2-8.8l2.5-0.2v-2.7c0-3-2.3-5-6.1-5s-5.7,1.3-6.5,4.8h-4.1c0.4-2.2,1.4-4.1,3-5.6c2-1.6,4.7-2.3,7.2-2.3
		c5.6,0,10.2,2.5,10.2,9.3v14.9h3.8L138.9,89.7L138.9,89.7z M131.2,75.8l-2.5,0.4c-8.2,1.1-10.9,2.5-10.9,5.9c0.2,3,2.7,5.2,5.6,5.2
		c3.9-0.2,7.3-3,7.9-7V75.8L131.2,75.8z"/>
	<path class="st1" d="M150.2,67.7c1.3-1.8,3.6-5.6,8.6-5.6c3.6,0,5.6,1.8,6.3,5.6c0.7-1.3,1.4-2.3,2.5-3.4c1.6-1.4,3.6-2.3,5.7-2.3
		c4.1,0,6.5,2.7,6.5,7.3v17h3.8v3.2H176V70.7c0-3.8-1.3-5.6-3.9-5.6c-4.7,0-7.2,5.6-7.2,7.5v13.6h3.9v3.2H161V70.2
		c0-3.4-1.3-4.8-3.9-4.8c-4.1,0-7.2,5.2-7.2,7.7v13.4h3.9v3.2h-11.6v-3.2h3.9V65.7h-3.9v-3.2h7.9L150.2,67.7L150.2,67.7z"/>
	<path class="st1" d="M187.7,52.7h7.5v15.6c1.1-2,4.1-5.9,8.8-5.9c6.1,0,10.8,6.3,10.8,14.2c0,7.3-5,13.6-10.8,13.6
		c-4.8,0-7.2-3.2-8.8-5.4v5h-7.7v-3.2h3.8V55.9h-3.6V52.7L187.7,52.7z M195.2,78.3c0,4.5,3.4,8.1,7.7,8.4c4.7,0,7.5-4.1,7.5-10.8
		s-3-10.6-7.5-10.6c-3.9,0-7.9,4.3-7.9,8.2L195.2,78.3L195.2,78.3z"/>
	<path class="st1" d="M217,52.7h7.7v33.9h3.6v3.2h-11.5v-3.2h3.9V55.7H217V52.7L217,52.7z"/>
	<path class="st1" d="M254.7,82.2c-0.4,1.6-1.1,2.9-2.2,4.1c-2.2,2.5-5.2,3.9-8.6,3.9c-7.3,0-12.5-5.7-12.5-14c0-7.9,5.2-14,11.8-14
		s12,5.2,12,14.7h-19.5c0.4,3.9,1.3,6.3,3,8.1c1.4,1.3,3.2,2,5,2c3,0,5-1.4,6.5-4.7L254.7,82.2L254.7,82.2z M250.7,74
		c0-2.5-0.9-4.8-2.7-6.8c-1.3-1.1-2.9-1.8-4.5-1.6c-3.4,0.2-6.3,2.5-7.2,5.7c-0.2,0.9-0.5,1.8-0.5,2.7L250.7,74L250.7,74z"/>
	<path class="st1" d="M271.7,54.3h8.6l9.9,29.7h2.7v5.7h-8.1l-2.3-7.7h-12.5l-2.3,7.7h-8.2V84h2.7L271.7,54.3z M276,60.9l-4.7,15.8
		h9.3L276,60.9z"/>
	<path class="st1" d="M292.5,62.7h10.8v5.2h-2.7l3.8,15.9l4.5-21.1h7l4.5,20.8l3.6-15.6h-2.7v-5.2h10.8v5.2h-2.3l-5.7,21.7h-7.2
		l-4.5-18.6l-4.3,18.6h-7.2l-5.9-21.7h-2.3L292.5,62.7L292.5,62.7z"/>
	<path class="st1" d="M357.3,84.5h2.3v5.2h-8.4v-3.2c-2,2.5-5,3.8-8.2,3.8c-5.4,0-9.5-3.6-9.5-8.4c0-7.9,9-8.8,17.6-9.5
		c0-4.1-1.4-5.4-4.8-5.4c-3.4,0-4.7,1.6-4.8,4.1v0.2l-6.5-0.2c0.4-5.4,4.7-8.8,11.1-8.8c7.5,0,11.5,3.4,11.5,9.5L357.3,84.5
		L357.3,84.5z M350.9,77c-6.3,0.5-10.4,1.1-10.4,4.8c0,2.2,1.8,3.6,4.5,3.6c3.2,0,5.9-2.5,6.1-5.7v-0.2V77H350.9z"/>
	<path class="st1" d="M372.4,67c1.8-3.4,3.8-4.8,6.8-4.8c1.1,0,2,0.2,3,0.4v6.3c-1.1-0.2-2.2-0.4-3.2-0.4c-3.4-0.2-6.3,2.3-6.5,5.6
		v10.4h3.2v5.2h-12.5v-5.2h2.7V67.9h-2.7v-5.2h9.1V67z"/>
	<path class="st1" d="M409.3,80.8c-1.3,5.9-6.1,9.5-12.5,9.5c-7.5,0-13.1-5.9-13.1-14.2S389.2,62,396.7,62c4.1,0,8.1,2,10.4,5.6
		c1.8,3,2.9,6.5,2.7,10h-19.4c0.7,7,5.2,7.3,6.5,7.3c2.5,0.2,4.8-1.6,5.6-3.9L409.3,80.8L409.3,80.8z M402.3,72.9
		c0-3-2.5-5.4-5.4-5.4h-0.2c-3,0-5.6,2.3-6.1,5.2L402.3,72.9L402.3,72.9z"/>
	<g class="st2">
		<path class="st3" d="M478.1,38.3c0.9,0,1.5,0.2,2,0.6c0.5,0.4,0.7,1,0.7,1.7c0,0.6-0.1,1-0.4,1.4c-0.3,0.4-0.6,0.7-1.2,0.9v0
			c0.3,0.1,0.5,0.1,0.6,0.3c0.2,0.1,0.3,0.3,0.4,0.4c0.1,0.2,0.2,0.3,0.2,0.6c0,0.2,0.1,0.4,0.1,0.6c0,0.2,0,0.4,0,0.7
			c0,0.2,0,0.5,0.1,0.7c0,0.2,0.1,0.4,0.1,0.6c0.1,0.2,0.2,0.4,0.3,0.5h-1.3c-0.1-0.1-0.1-0.2-0.2-0.4c0-0.2,0-0.3-0.1-0.5
			c0-0.2,0-0.4,0-0.6c0-0.2,0-0.5-0.1-0.7c0-0.2-0.1-0.4-0.1-0.6c-0.1-0.2-0.1-0.4-0.2-0.5c-0.1-0.1-0.3-0.3-0.4-0.4
			c-0.2-0.1-0.4-0.1-0.7-0.1H475v3.9h-1.2v-9.1H478.1z M478.3,42.4c0.3,0,0.5-0.1,0.7-0.2c0.2-0.1,0.3-0.3,0.5-0.5
			c0.1-0.2,0.2-0.5,0.2-0.8c0-0.5-0.1-0.8-0.4-1.1c-0.3-0.3-0.7-0.4-1.2-0.4h-3v3.2h2.5C477.8,42.5,478.1,42.5,478.3,42.4z"/>
	</g>
	<g class="st4">
		<path class="st3" d="M477.2,51.9c-4.8,0-8.8-3.9-8.8-8.8s3.9-8.8,8.8-8.8c4.8,0,8.8,3.9,8.8,8.8S482,51.9,477.2,51.9z M477.2,35.8
			c-4.1,0-7.3,3.3-7.3,7.3s3.3,7.3,7.3,7.3c4.1,0,7.3-3.3,7.3-7.3S481.3,35.8,477.2,35.8z"/>
	</g>
	<g class="st4">
		<path class="st3" d="M413,86.2h3.3v3.3H413V86.2z"/>
		<path class="st3" d="M419.4,79.8c0-5.9,3.6-10,8.9-10c5.1,0,8.9,4.2,8.9,10c0,6-3.7,10.2-9,10.2C422.9,89.9,419.4,85.8,419.4,79.8
			z M428.2,87.5c3.7,0,5.9-3,5.9-7.8c0-4.6-2.3-7.5-5.9-7.5c-3.5,0-5.7,2.9-5.7,7.6C422.5,84.6,424.6,87.5,428.2,87.5z"/>
		<path class="st3" d="M444.7,74.5c0.9-2,1.4-2.6,2.3-3.5c1-0.9,2.3-1.3,3.5-1.3c0.5,0,1.1,0.1,2.1,0.2v2.8c-1-0.2-1.5-0.3-2.1-0.3
			c-5.3,0-5.9,5.4-5.9,5.7v8.9h3.3v2.3h-8.9v-2.3h2.8V72.4h-2.9v-2.3h5.7V74.5z"/>
		<path class="st3" d="M467.8,84.7c-1.8,2.5-3.7,3.3-5.8,3.3c-4.6,0-7.8-3.8-7.8-9.3c0-5.2,3.1-8.9,7.5-8.9c3.6,0,5.1,2.3,6.2,3.7
			v-3.5h5.5v2.3h-2.7v15.9c0,4.7-3,7.3-8.2,7.3c-3.2,0-5.9-1.4-7.2-3.7c-0.3-0.5-0.5-0.9-0.8-1.9h3.1c1.2,2.3,2.5,3.2,5.1,3.2
			c3.3,0,5.3-1.7,5.3-4.5V84.7z M467.8,77.2c0-2.1-2.6-5.1-5.5-5.1c-3.2,0-5.1,2.6-5.1,6.8c0,4.3,2,6.9,5.3,6.9c2.8,0,5.4-2.8,5.4-5
			V77.2z"/>
	</g>
</g>
<g id="Layer_2" class="st0">
	<g class="st4">
		<g>
			<path class="st3" d="M130.7,12.4C101.6,12.4,78,35.9,78,65s23.6,52.6,52.7,52.6c29.1,0,52.7-23.6,52.7-52.6
				C183.3,35.9,159.8,12.4,130.7,12.4 M130.7,21c24.3,0,44,19.7,44,44s-19.7,44-44,44s-44-19.7-44-44C86.6,40.7,106.4,21,130.7,21"
				/>
			<path class="st3" d="M99.5,47.3h29.9v9.1h-19.6v6.4h17.7v8.6h-17.7v13.4H99.5V47.3z M148.8,65.3c3.5,0,5.6-1.7,5.6-4.4v-0.1
				c0-3-2.2-4.5-5.6-4.5h-6.8v9L148.8,65.3L148.8,65.3z M131.6,47.3h17.7c5.7,0,9.7,1.5,12.2,4c2.2,2.2,3.3,5,3.3,8.7v0.1
				c0,5.8-3,9.6-7.7,11.5l8.9,13h-11.9l-7.6-11.4h-4.6v11.3h-10.4L131.6,47.3L131.6,47.3z"/>
		</g>
		<path class="st3" d="M203.9,37.8h16.2v1.6h-14.5v9.5h13v1.6h-13v10.3h-1.7V37.8z M223.5,51.2V37.7h1.7V51c0,5.4,2.9,8.5,7.8,8.5
			c4.7,0,7.7-2.8,7.7-8.4V37.7h1.7V51c0,6.6-3.8,10.1-9.5,10.1C227.4,61.1,223.5,57.7,223.5,51.2 M247.2,37.8h1.6l15.9,20v-20h1.7
			v23h-1.3l-16.2-20.5v20.5h-1.7L247.2,37.8L247.2,37.8z M279.2,59.2c6.4,0,10.4-4.4,10.4-9.9v-0.1c0-5.4-4.1-9.9-10.4-9.9h-6v19.8
			C273.3,59.2,279.2,59.2,279.2,59.2z M271.6,37.8h7.7c7.2,0,12.2,5,12.2,11.5v0.1c0,6.5-5,11.5-12.2,11.5h-7.7V37.8z M305.2,49.7
			c3.8,0,6.7-1.9,6.7-5.3v-0.1c0-3.1-2.4-5-6.6-5h-7.9v10.4H305.2z M295.6,37.8h9.7c2.8,0,5.1,0.9,6.5,2.3c1.1,1.1,1.7,2.6,1.7,4.3
			v0.1c0,3.8-2.9,6.1-6.8,6.6l7.6,9.8h-2.2l-7.3-9.5h-7.5v9.5h-1.7V37.8L295.6,37.8z M333.4,52.8l-6.1-13.3l-6.1,13.3H333.4
			L333.4,52.8z M326.5,37.6h1.7l10.7,23.2H337l-2.9-6.4h-13.6l-2.9,6.4h-1.8L326.5,37.6L326.5,37.6z M342.4,60.8h1.7v-23h-1.7V60.8z
			 M348,57.4l1.1-1.3c2.5,2.4,4.9,3.4,8.3,3.4c3.4,0,5.8-1.9,5.8-4.6V55c0-2.4-1.3-3.8-6.5-4.9c-5.5-1.1-7.7-3-7.7-6.5v-0.1
			c0-3.4,3.2-6.1,7.4-6.1c3.4,0,5.6,0.9,7.9,2.8l-1.1,1.4c-2.2-1.9-4.4-2.6-6.9-2.6c-3.4,0-5.6,1.9-5.6,4.4v0.1c0,2.4,1.3,3.9,6.7,5
			c5.3,1.1,7.6,3,7.6,6.4V55c0,3.7-3.2,6.3-7.6,6.3C353.7,61.1,350.9,59.9,348,57.4 M369.2,60.8h1.7v-23h-1.7V60.8z M376.3,37.8h1.6
			l15.9,20v-20h1.7v23h-1.3L378,40.3v20.5h-1.7V37.8z M399.6,49.3L399.6,49.3c0-6.2,4.5-12,11.4-12c3.7,0,6.1,1.1,8.4,3l-1.1,1.3
			c-1.8-1.6-3.9-2.8-7.4-2.8c-5.6,0-9.5,4.8-9.5,10.3v0.1c0,6,3.7,10.4,9.9,10.4c2.9,0,5.7-1.2,7.3-2.6v-6.6h-7.7v-1.6h9.3v8.9
			c-2.1,1.8-5.3,3.4-9.1,3.4C404,61.2,399.6,55.8,399.6,49.3"/>
		<path class="st3" d="M215,79c2.8,0,4.4-1.5,4.4-3.7v-0.1c0-2.4-1.7-3.7-4.5-3.7h-5.6V79H215z M203.6,66.5h11.8
			c3.3,0,5.8,0.9,7.5,2.6c1.4,1.4,2.2,3.4,2.2,5.9v0.1c0,4.2-2.2,6.8-5.5,8l6.3,9.2h-6.7l-5.6-8.3h-4.5v8.3h-5.7L203.6,66.5
			L203.6,66.5z M228.4,66.5h19.5v5h-13.8v5.2h12.2v5h-12.2v5.4h14v5h-19.7V66.5z M250.1,79.5L250.1,79.5c0-7.4,5.7-13.4,13.5-13.4
			c4.6,0,7.5,1.3,10.1,3.6l-3.6,4.3c-2-1.7-3.8-2.6-6.8-2.6c-4.1,0-7.4,3.7-7.4,8v0.1c0,4.7,3.3,8.2,7.8,8.2c2.1,0,3.9-0.5,5.3-1.5
			v-3.7h-5.7v-4.9h11.2v11.2c-2.6,2.2-6.3,4.1-11,4.1C255.6,92.8,250.1,87.1,250.1,79.5 M277.9,81.3V66.5h5.7v14.6
			c0,4.2,2.1,6.4,5.6,6.4s5.6-2.1,5.6-6.2V66.5h5.7v14.6c0,7.8-4.4,11.6-11.4,11.6C282.1,92.8,277.9,88.9,277.9,81.3 M304.3,66.5
			h5.7v20.6h12.9v5.2h-18.6V66.5z M340.1,81.5l-3.4-8.4l-3.4,8.4H340.1z M334.2,66.4h5.2l11.1,26h-6l-2.4-5.8h-10.9l-2.4,5.8h-5.8
			C323.1,92.3,334.2,66.4,334.2,66.4z M355.3,71.8h-7.9v-5.2h21.4v5.2h-7.9v20.6h-5.7V71.8z M390.6,79.5L390.6,79.5
			c0-4.5-3.3-8.1-7.8-8.1c-4.6,0-7.7,3.6-7.7,8v0.1c0,4.4,3.3,8.1,7.8,8.1C387.4,87.5,390.6,83.9,390.6,79.5 M369,79.5L369,79.5
			c0-7.4,5.8-13.4,13.8-13.4c8,0,13.7,5.9,13.7,13.2v0.1c0,7.3-5.8,13.4-13.8,13.4C374.8,92.8,369,86.8,369,79.5 M411.1,79
			c2.8,0,4.4-1.5,4.4-3.7v-0.1c0-2.4-1.7-3.7-4.5-3.7h-5.6V79H411.1z M399.7,66.5h11.8c3.3,0,5.8,0.9,7.5,2.6
			c1.4,1.4,2.2,3.4,2.2,5.9v0.1c0,4.2-2.2,6.8-5.6,8l6.3,9.2h-6.7l-5.6-8.3h-4.5v8.3h-5.7L399.7,66.5L399.7,66.5z"/>
	</g>
</g>
<g id="Layer_3">
	<path class="st5" d="M105.1,57.6c-2.2,0.8-4.5,1.3-7,1.7c-2.4,0.4-5.1,0.5-8.1,0.5c-6.2,0-12-2-16.3-5.7c-4.2-3.6-6.9-8.8-6.9-15
		c0-7,2.4-12.8,6.8-16.9c4.3-4.1,10.5-6.5,17.9-6.5c2.7,0,5.3,0.2,7.5,0.7c2.3,0.4,4.3,1.1,6.1,2l-2.4,6.5c-0.6-0.5-1.9-1.3-3.8-2.1
		c-1.9-0.7-4.5-1.3-7.8-1.3c-5.1,0-9.1,1.6-11.8,4.4S75,32.8,75,37.7c0,5.2,1.8,9.3,4.6,12.2c2.8,2.9,6.7,4.4,10.6,4.4
		c1.5,0,2.7-0.1,3.7-0.2c1.1-0.1,2-0.4,2.8-0.7c0.1-1.2,0.2-2.8,0.2-4.5l0.1-4.4l-0.1-3.8c-0.1-1.2-0.1-2.2-0.2-3.2h8.2l-0.1,4v4.3
		v5.7l0.1,5.8"/>
	<path class="st5" d="M122.1,41.2h13.6l-3.5-9l-2.9-8.5l-2,5.2l-2.3,5.7l-1.4,3.3 M133.7,15.8l8.1,21.1l9.2,21.9h-9l-0.9-2.3
		l-0.9-2.4l-1.5-3.5l-1.3-3.6h-17.5l-1.5,3.6l-1.5,3.4l-1,2.5c-0.4,0.9-0.7,1.6-0.9,2.4h-7.8l9.5-20.6l9.8-22.4L133.7,15.8
		L133.7,15.8z"/>
	<path class="st5" d="M193.9,58.4l-0.2-17L193,25.3l-1.2,3.3l-1.4,3.8l-4.8,13.4L181,58.5h-7.2l-5.9-17.3l-5.2-15.9l-1.6,16.2l-1,17
		h-7.3c1-7.3,1.8-14.3,2.4-21.4l1.3-21.3h9.8l3.5,10.9l4,11.2l2.2,6.4l2,6l6.4-17l6.1-17.5h9.5c0,6.1,0.2,13.3,0.7,20.6l1.6,22"/>
	<path class="st5" d="M219.3,52.9c4.3,0,7.1-0.6,8.9-1.8c1.8-1.2,2.4-2.9,2.4-5.1c0-2.3-0.9-4-2.8-5.1c-1.9-1.2-4.8-1.7-8.7-1.7
		h-4.3v6.9l0.1,6.8 M215,21.4l-0.1,5.8v6.4h4c3.4,0,5.9-0.5,7.6-1.6c1.6-1,2.4-2.6,2.4-4.7c0-2-0.7-3.5-2.3-4.5
		c-1.6-1-4-1.6-7.5-1.6l-2.1,0.1C216.3,21.2,215.6,21.3,215,21.4z M228.7,35.5c3,0.6,5.4,1.9,7.1,3.7c1.6,1.8,2.6,4,2.6,6.5
		c0,4.2-1.5,7.3-4.5,9.5c-3.1,2.1-7.6,3.3-13.7,3.3h-13.3l0.4-10.3l0.1-10.4l-0.1-11l-0.4-10.9h13.1c5.2,0,9.3,1,12.2,2.7
		c2.8,1.8,4.3,4.4,4.3,7.6c0,2-0.9,4-2.3,5.7C232.9,33.6,230.9,34.9,228.7,35.5z"/>
	<polyline class="st5" points="250,47.6 250.1,50.2 250.1,52.7 260.4,52.6 269.2,52.5 267,58.4 242,58.4 242.4,48.1 242.4,37.7 
		242.4,26.7 242,15.8 250.3,15.8 250.2,19.9 250.1,23.5 249.9,30.2 249.9,37.7 249.9,42.9 	"/>
	<polyline class="st5" points="273.9,58.4 274.2,48.1 274.3,37.7 274.2,26.7 273.9,15.8 282.1,15.8 282.1,18.8 282.1,21.6 
		281.9,29.2 281.8,37.7 281.9,45.7 282.1,53 282.1,55.6 282.1,58.4 	"/>
	<polyline class="st5" points="322.9,15.8 322.7,26.7 322.7,37.7 322.7,48.1 322.9,58.4 315.5,58.4 303.7,40.5 293.1,25.3 293.2,43 
		293.5,58.4 286.1,58.4 286.5,48.1 286.5,37.7 286.5,26.7 286.1,15.8 294.6,15.8 306.5,32.3 316,46.3 316,30.1 315.6,15.8 	"/>
	<path class="st5" d="M365.7,57.6c-2.2,0.8-4.5,1.3-7,1.7c-2.5,0.4-5.1,0.5-8.1,0.5c-6.2,0-12.1-2-16.4-5.7c-4.3-3.6-7-8.8-7-15
		c0-7,2.5-12.8,6.8-16.9s10.5-6.5,18-6.5c2.7,0,5.2,0.2,7.5,0.7c2.3,0.4,4.3,1.1,6.2,2l-2.4,6.5c-0.9-0.9-2.6-1.7-4.6-2.3
		c-2-0.6-4.5-1-6.8-1c-5.3,0-9.3,1.6-12.1,4.4c-2.7,2.8-4.2,6.8-4.2,11.7c0,5.2,1.8,9.3,4.6,12.2c2.8,2.9,6.7,4.4,10.7,4.4
		c1.5,0,2.6-0.1,3.7-0.2c1-0.1,2-0.4,2.7-0.7c0.1-1.2,0.2-2.8,0.2-4.5l0.1-4.4l-0.1-3.8c-0.1-1.2-0.1-2.2-0.2-3.2h8.3
		c-0.1,1.2-0.1,2.6-0.1,4v4.3v5.7l0.1,5.8"/>
	<path class="st5" d="M66.8,93.5c0-7.2,2.6-13,6.9-17c4.3-4,10.2-6.2,16.7-6.2c2.7,0,5.1,0.1,7.1,0.5c2,0.4,3.8,0.9,5.5,1.7
		l-2.6,6.9c-0.5-0.8-1.8-1.6-3.5-2.3c-1.7-0.7-4-1.2-6.6-1.2c-4.5,0-8.3,1.5-11,4.3s-4.3,6.9-4.3,12c0,4.9,1.6,9,4.4,11.8
		c2.7,2.8,6.6,4.5,10.9,4.5c2,0,3.8-0.2,5.6-0.7c1.7-0.5,3.3-1.2,4.9-2.2l2.3,5.4c-2.1,1.2-4.2,2-6.4,2.4s-4.8,0.7-7.6,0.7
		c-6.4,0-11.9-2.1-15.9-5.7C69.2,104.8,66.8,99.6,66.8,93.5"/>
	<path class="st5" d="M125.8,108.6c4.2,0,7.7-1.6,10.2-4.5c2.4-2.9,3.8-7,3.8-11.9c0-4.9-1.5-9-3.9-11.8c-2.5-2.9-6-4.5-10.1-4.5
		c-4.4,0-7.9,1.6-10.3,4.5c-2.4,2.9-3.7,7-3.7,11.8c0,4.9,1.3,9,3.8,11.9C118,107,121.5,108.6,125.8,108.6 M125.8,70.3
		c6.7,0,12.3,2.1,16.3,5.9s6.2,9.1,6.2,15.5c0,6.8-2.5,12.5-6.5,16.4c-4.1,3.9-9.7,6.1-16,6.1c-6.7,0-12.4-2.1-16.4-5.8
		c-4-3.7-6.3-9-6.3-15.4c0-6.8,2.4-12.5,6.5-16.5C113.8,72.5,119.4,70.3,125.8,70.3z"/>
	<path class="st5" d="M192.4,112.5l-0.2-17l-0.7-16.1l-1.2,3.2l-1.4,3.7L184,99.8l-4.6,12.7h-7.2l-5.9-17.3l-5.2-15.8l-1.5,16.1
		l-1,17h-7.3c1-7.3,1.8-14.3,2.4-21.4l1.3-21.3h9.8l3.5,11l4,11.2l2.3,6.4l2,5.9l6.4-17l6.2-17.6h9.3c0,6.1,0.2,13.3,0.7,20.6
		l1.6,22"/>
	<path class="st5" d="M244.4,112.5l-0.2-17l-0.7-16.1l-1.2,3.2l-1.4,3.7l-4.8,13.4l-4.6,12.7h-7.3l-5.8-17.3l-5.2-15.8l-1.6,16.1
		l-1,17h-7.2c1-7.3,1.8-14.3,2.4-21.4l1.3-21.3h9.9l3.5,11l3.9,11.2l2.3,6.4l2,5.9l6.4-17l6.2-17.6h9.3c0,6.1,0.2,13.3,0.7,20.6
		l1.6,22"/>
	<polyline class="st5" points="256.8,112.5 257.1,102.3 257.2,91.9 257.1,80.8 256.8,69.9 265,69.9 264.7,80.8 264.6,91.9 
		264.7,102.3 265,112.5 	"/>
	<path class="st5" d="M295.7,78.8c-0.9-0.8-2.1-1.6-3.7-2.2c-1.5-0.6-3.4-1-5.5-1c-2.6,0-4.5,0.5-5.8,1.5c-1.3,0.9-2,2.3-2,3.8
		c0,1.3,0.3,2.4,1.3,3.4c1,1,2.7,2.1,5.4,3.3l2.1,0.9l2.1,0.9c3.3,1.5,5.6,3.1,7.1,4.9c1.5,1.9,2.2,4.2,2.2,7.1
		c0,4.2-1.7,7.3-4.5,9.3c-2.8,2.1-6.7,3.2-11.2,3.2c-2.6,0-5.1-0.2-7.5-0.7c-2.3-0.4-4.5-1.1-6.6-2.1l2.4-6.2c1.6,1,3.5,2,5.4,2.6
		c2,0.6,4,1,6,1c2.9,0,4.8-0.7,6.1-1.8c1.2-1.1,1.8-2.6,1.8-4.3c0-1.5-0.5-2.8-1.6-3.9c-1.1-1.1-2.7-2.1-4.9-3.1l-2.4-1.2l-2.4-1.1
		c-2.9-1.3-5.1-2.9-6.6-4.7c-1.5-1.8-2.2-4-2.2-6.7c0-3.4,1.5-6.4,4.3-8.5c2.7-2.1,6.7-3.4,11.4-3.4c2.6,0,4.9,0.2,6.8,0.6
		s3.5,0.9,4.8,1.6"/>
	<path class="st5" d="M327.5,78.8c-1-0.8-2.2-1.6-3.7-2.2c-1.5-0.6-3.4-1-5.4-1c-2.6,0-4.6,0.5-5.9,1.5c-1.3,0.9-2,2.3-2,3.8
		c0,1.3,0.3,2.4,1.3,3.4c1,1,2.7,2.1,5.5,3.3l2.1,0.9l2.1,0.9c3.3,1.5,5.6,3.1,7.1,4.9c1.5,1.9,2.2,4.2,2.2,7.1
		c0,4.2-1.7,7.3-4.5,9.3c-2.8,2.1-6.7,3.2-11.2,3.2c-2.7,0-5.2-0.2-7.5-0.7c-2.3-0.4-4.5-1.1-6.5-2.1l2.4-6.2c1.6,1,3.4,2,5.4,2.6
		c2,0.6,4,1,6.1,1c2.9,0,4.8-0.7,6.1-1.8c1.2-1.1,1.8-2.6,1.8-4.3c0-1.5-0.5-2.8-1.6-3.9c-1.1-1.1-2.7-2.1-4.9-3.1l-2.4-1.2
		l-2.4-1.1c-2.9-1.3-5.1-2.9-6.6-4.7c-1.5-1.8-2.2-4-2.2-6.7c0-3.4,1.5-6.4,4.3-8.5c2.7-2.1,6.7-3.4,11.4-3.4c2.6,0,4.9,0.2,6.8,0.6
		s3.5,0.9,4.8,1.6"/>
	<polyline class="st5" points="335.1,112.5 335.5,102.3 335.6,91.9 335.5,80.8 335.1,69.9 343.4,69.9 343,80.8 342.9,91.9 
		343,102.3 343.4,112.5 	"/>
	<path class="st5" d="M370.7,108.6c4.3,0,7.8-1.6,10.3-4.5c2.4-2.9,3.8-7,3.8-11.9c0-4.9-1.5-9-3.9-11.8c-2.5-2.9-6-4.5-10.2-4.5
		c-4.3,0-7.9,1.6-10.3,4.5c-2.4,2.9-3.8,7-3.8,11.8c0,4.9,1.4,9,3.8,11.9C363,107,366.5,108.6,370.7,108.6 M370.7,70.3
		c6.8,0,12.4,2.1,16.4,5.9c4,3.7,6.2,9.1,6.2,15.5c0,6.8-2.4,12.5-6.5,16.4c-4.1,3.9-9.7,6.1-16.1,6.1c-6.7,0-12.3-2.1-16.3-5.8
		c-4-3.7-6.2-9-6.2-15.4c0-6.8,2.4-12.5,6.5-16.5C358.6,72.5,364.3,70.3,370.7,70.3z"/>
	<polyline class="st5" points="433.2,69.9 433,80.8 433,91.9 433,102.3 433.2,112.5 426.1,112.5 414,94.6 403.5,79.4 403.5,97.2 
		403.9,112.5 396.6,112.5 396.6,111.3 396.9,102.8 397,91.9 396.9,79.2 396.6,69.9 405,69.9 417,86.5 426.4,100.4 426.4,84.3 
		426,69.9 	"/>
</g>
<g id="Layer_4" class="st0">
	<g class="st4">
		<g>
			<path class="st6" d="M118.9,12.4c-29.1,0-52.7,23.6-52.7,52.6s23.6,52.6,52.7,52.6c29.1,0,52.7-23.6,52.7-52.6
				C171.5,35.9,147.9,12.4,118.9,12.4 M118.9,21c24.3,0,44,19.7,44,44s-19.7,44-44,44s-44-19.7-44-44C74.8,40.7,94.5,21,118.9,21"/>
		</g>
	</g>
	<g class="st4">
		<rect x="185.8" y="38.5" class="st7" width="248" height="61.3"/>
		<path class="st6" d="M193.7,49.5c-0.9-1.4-2-3.4-7-10.2l5.7-0.6h0.4l4.3,6.9c0.1,0,0.1,0,0.2-0.1l3.3-6.7h6.4l0.1,0.3l-6.9,10.3
			l-0.2,0.4V64c-1.9,0-3.8,0.3-5.6,0.3c-0.2,0-0.6,0-0.6,0l-0.2-0.2L193.7,49.5z"/>
		<path class="st6" d="M214.3,38.3c8.2,0,8.6,7.6,8.6,13.7c0,7.3-2.9,12.8-7.7,12.8c-0.3,0-0.7,0-1-0.1c-3.9-0.6-7.6-3.6-7.6-11.3
			v-0.1c0-5.4,0-15,7.3-15H214.3z M214.7,60.5c0.2,0,0.3,0.1,0.5,0.1c2,0,2.9-4.9,2.9-9.4c0-5.8-1.7-8.3-3.4-8.3
			c-2.6,0-3.6,4.1-3.6,8.2C211.1,53.5,211.5,59.7,214.7,60.5z"/>
		<path class="st6" d="M233.7,64.7c-4.3,0-8.8-4.4-8.8-13.9c0-3.9,0.3-6.6,0.5-10.7c0.1-0.3,0.3-0.8,0.7-0.9c1.8,0,2.9-0.1,4.1-0.1
			c0.2,0,0.5,0,0.6,0.3c0,3.9-0.5,6.6-0.5,10.8c0,4.6,1.1,8.8,3.2,8.9h0.1c2,0,2.1-2.7,2.1-5.4c0-5.2-0.6-9.5-0.7-14.1
			c0,0,0.3-0.1,0.3-0.1c1.5-0.2,3-0.2,4.5-0.4h0.2c0.3,0,0.3,0.1,0.3,0.2l0.6,13.3c0,0.9,0.1,1.7,0.1,2.4
			C241,61.4,237.5,64.7,233.7,64.7z"/>
		<path class="st6" d="M275.1,64c-0.7,0.1-1.6,0.2-2.3,0.2c-1.1,0-2.2-0.1-2.8-0.1l-0.8-15.8c-0.2,0.1-0.3,0.7-0.5,1.2l-2.5,6.1
			l-4.2,0l-4.2-8.7c0,3.1-0.1,17.7-0.2,17.7c0,0-0.1,0-3.6-0.2l-1.2-0.1l0.3-25l6.2-0.1c2.5,5,4,8.3,4,8.4l0.1,0.2
			c0,0,0.1-0.1,0.1-0.1c1.5-2.7,2.6-5.5,3.8-8.4c3.5-0.4,6-0.3,6.3-0.3L275.1,64z"/>
		<path class="st6" d="M285.2,64.7c-4.3,0-8.8-4.4-8.8-13.9c0-3.9,0.3-6.6,0.5-10.7c0.1-0.3,0.3-0.8,0.7-0.9c1.8,0,2.9-0.1,4.1-0.1
			c0.2,0,0.5,0,0.6,0.3c0,3.9-0.5,6.6-0.5,10.8c0,4.6,1.1,8.8,3.2,8.9h0.1c2,0,2.1-2.7,2.1-5.4c0-5.2-0.6-9.5-0.7-14.1
			c0,0,0.3-0.1,0.3-0.1c1.5-0.2,3-0.2,4.5-0.4h0.2c0.3,0,0.3,0.1,0.3,0.2l0.6,13.3c0,0.9,0.1,1.7,0.1,2.4
			C292.5,61.4,288.9,64.7,285.2,64.7z"/>
		<path class="st6" d="M307.5,57.8c0,4.7-3.5,6.8-7.6,6.8c-2.7,0-5.3-1.2-6.9-3.6c2.8-3.8,3-3.9,3-3.9c0.1,0,0.4,0.6,0.5,0.7
			c1,1.1,2.4,1.8,4,1.8c1.4,0,1.9-0.7,1.9-1.6c0-5.4-8.6-9.6-8.6-13.9c0-3.7,3.3-5.6,6.9-5.6c2.6,0,5.5,1.6,7.1,3.6l-2.1,3.7
			c-0.7-0.7-4-3-5.7-3c-0.8,0-1.1,0.6-1.1,1.3c0,3.1,8.6,8,8.6,13.4V57.8z"/>
		<path class="st6" d="M313.9,43.2l-4.7,0.1l-0.2-5.1l14.8-0.3c0.1,1.3,0.1,3.4,0.1,5l-5,0.1L319,64.5c0,0.1-0.2,0.1-4.5,0.2
			c-0.1,0-0.3,0-0.3-0.2C314.1,56.4,314.3,48.8,313.9,43.2z"/>
		<path class="st6" d="M335.9,39.5c0.2-0.2,0-0.3,0.3-0.5h0.4c0.8,0,1.6-0.1,2.5-0.1c3.1,0,8.2,0.2,8.2,5.9c0,1.5-0.8,3.2-2.2,3.9
			c3.8,1.1,4.7,4.3,4.7,8.6c0,6.8-4.8,7.3-13.3,7.3c-0.2,0-0.3-0.2-0.3-0.3L335.9,39.5z M340,44.6c0,0.6,0,1.3,0.1,1.9l1.1,0
			c0.8,0,1.9-0.4,1.9-1.6v-0.8c0-1.1-0.2-2.3-1.9-2.3c-0.3,0-0.7,0-1.1,0.1C340,42.6,340,44,340,44.6z M340.2,60.6
			c0,0.1,0.1,0.1,0.3,0.1c0.6,0,1.7-0.2,2-0.2c1.8-0.2,2.2-2.1,2.2-3.6c0-3.5-0.8-6.1-4-6.1h-0.4L340.2,60.6z"/>
		<path class="st6" d="M352.2,64.6c0,0-0.3-0.1-0.3-0.1L351.8,39h9.9l0.3,4.3l-5.6-0.1v6.4c2.7,0,2.9-0.1,3-0.1l0.2,4.4l-3.1,0.2
			c0,1.7,0,4.6,0,6.4l6.4,0.1c0.1,0.1,0.3,3.6,0.3,4.2L352.2,64.6z"/>
		<path class="st6" d="M375.1,60.4c0-1.8-0.1-3.5-0.1-5.3c0-1.2-0.1-8-0.1-11.7c0-1.4,0-2.3,0-2.4c0-0.7,0-1.1,0.2-1.3
			c1.6,0,3.1,0.1,4.7,0.1c0,1.4,0.1,2.8,0.1,4.2c0,0.3-0.1,3.2-0.2,20.6c0,0.3-0.9,0.3-1.6,0.3h-0.6c-0.1,0-0.6,0-1.2,0
			c-0.7,0-1.5,0-1.5-0.2C375,63.4,375.1,61.9,375.1,60.4z"/>
		<path class="st6" d="M381.9,56.4c0-5.8,4.7-6.5,4.7-7.1c0-0.9-2-1.1-2-4.1V45c0.1-4.9,3.8-6.7,7.9-6.7c3.2,0,5.9,2.6,5.9,5.8
			c0,2.1-0.7,3.3-2.3,4.5c3.5,0.3,4.8,4.5,4.8,7.4c0,7.1-4.6,8.6-11,8.6C384.9,64.7,381.9,61.3,381.9,56.4z M391.9,60.5
			c2.6,0,3.7-1.3,3.7-3.8c0-3.3-1.3-5.3-4.6-5.3c-2.9,0-4.2,2.6-4.2,5.2C386.8,59.5,389.3,60.5,391.9,60.5z M391.3,46.6
			c1.4,0,2.1-0.8,2.1-1.8c0-1.6-1.2-2.4-2.3-2.4c-1,0-1.9,0.7-1.9,2.3C389.1,45.9,390.1,46.6,391.3,46.6z"/>
		<path class="st6" d="M194.5,68.3c8.2,0,8.6,7.6,8.6,13.7c0,7.3-2.9,12.8-7.7,12.8c-0.3,0-0.7,0-1-0.1c-3.9-0.6-7.6-3.6-7.6-11.3
			v-0.1c0-5.4,0-15,7.3-15H194.5z M195,90.5c0.2,0,0.3,0.1,0.5,0.1c2,0,2.9-4.9,2.9-9.4c0-5.8-1.7-8.3-3.4-8.3
			c-2.6,0-3.6,4.1-3.6,8.2C191.3,83.5,191.7,89.7,195,90.5z"/>
		<path class="st6" d="M214.9,94.2l-4.6-12.8l0.6,11.8l0,0c-0.2,0.1-0.4,0.3-4.5,0.5H206c-0.2,0-0.4,0-0.5-0.1l-0.4-25.1l0.1-0.1
			c1.2,0,3-0.2,4.3-0.2c2.5,0,5.4,0.4,6.8,2.8c0.7,0.9,1,2.2,1,3.3v0.1c-0.1,2.4-1.1,4.5-2.8,5.7l5.5,13.7L214.9,94.2z M209.9,77.7
			h0.3c1.4,0,2.9-1,3-2.3v-0.2c0-2.2-0.6-3.9-2.5-4c-0.3,0-0.7,0.1-1.1,0.2L209.9,77.7z"/>
		<path class="st6" d="M239.5,68.3c8.2,0,8.6,7.6,8.6,13.7c0,7.3-2.9,12.8-7.7,12.8c-0.3,0-0.7,0-1-0.1c-3.9-0.6-7.6-3.6-7.6-11.3
			v-0.1c0-5.4,0-15,7.3-15H239.5z M240,90.5c0.2,0,0.3,0.1,0.5,0.1c2,0,2.9-4.9,2.9-9.4c0-5.8-1.7-8.3-3.4-8.3
			c-2.6,0-3.6,4.1-3.6,8.2C236.3,83.5,236.7,89.7,240,90.5z"/>
		<path class="st6" d="M248.2,69.1l6.1-0.1c1.3,5.8,2.1,11.2,3.5,16.8c0.2,0.7,0.3,1.4,0.5,2l2.9-16.6c0-0.7,0.1-1.4,0.7-1.4
			c0.4,0,4.5,0,5.7,0.1L261.4,94l-5.9,1L248.2,69.1z"/>
		<path class="st6" d="M270,94.6c0,0-0.3-0.1-0.3-0.1L269.6,69h9.9l0.3,4.3l-5.6-0.1v6.4c2.7,0,2.9-0.1,3-0.1l0.2,4.4l-3.1,0.2
			c0,1.8,0,4.6,0,6.4l6.4,0.1c0.1,0.1,0.3,3.6,0.3,4.2L270,94.6z"/>
		<path class="st6" d="M292.7,94.2l-4.6-12.8l0.6,11.8l0,0c-0.2,0.1-0.4,0.3-4.5,0.5h-0.5c-0.2,0-0.4,0-0.5-0.1l-0.4-25.1l0.1-0.1
			c1.2,0,3-0.2,4.3-0.2c2.5,0,5.4,0.4,6.8,2.8c0.7,0.9,1,2.2,1,3.3v0.1c-0.1,2.4-1.1,4.5-2.8,5.7l5.5,13.7L292.7,94.2z M287.6,77.7
			h0.3c1.4,0,2.9-1,3-2.3v-0.2c0-2.2-0.6-3.9-2.5-4c-0.3,0-0.7,0.1-1.1,0.2L287.6,77.7z"/>
		<path class="st6" d="M314.4,73.2l-4.7,0.1l-0.2-5.1l14.8-0.3c0.1,1.3,0.1,3.4,0.1,5l-5,0.1l-0.1,21.4c0,0.1-0.2,0.1-4.5,0.2
			c-0.1,0-0.3,0-0.3-0.2C314.6,86.4,314.7,78.8,314.4,73.2z"/>
		<path class="st6" d="M332.6,68.3c8.2,0,8.6,7.6,8.6,13.7c0,7.3-2.9,12.8-7.7,12.8c-0.3,0-0.7,0-1-0.1c-3.9-0.6-7.6-3.6-7.6-11.3
			v-0.1c0-5.4,0-15,7.3-15H332.6z M333.1,90.5c0.2,0,0.3,0.1,0.5,0.1c2,0,2.9-4.9,2.9-9.4c0-5.8-1.7-8.3-3.4-8.3
			c-2.6,0-3.6,4.1-3.6,8.2C329.4,83.5,329.8,89.7,333.1,90.5z"/>
		<path class="st6" d="M353.5,94.6c0,0-0.3-0.1-0.3-0.1L353.1,69h9.9l0.3,4.3l-5.6-0.1v6.4c2.7,0,2.9-0.1,3-0.1l0.2,4.4l-3.1,0.2
			c0,1.8,0,4.6,0,6.4l6.4,0.1c0.1,0.1,0.3,3.6,0.3,4.2L353.5,94.6z"/>
		<path class="st6" d="M383.2,93.7l-5.8,0c-1.1-1.9-4.8-9.6-5.9-11.9l-0.2-0.3l0.7,12.6c0,0.3-2.8,0.3-4.2,0.3h-0.3
			c0,0-0.1,0-0.1-0.1l-1.1-24.4c0-0.7,0.2-1,0.9-1h0.2c0.6,0.1,1.2,0.1,1.7,0.1c0.5,0,1,0,1.7,0c0.5,0,1.7,3,7.2,15.5v-0.2
			c0-0.8,0-2.3-0.4-16c1.8-0.1,3.4-0.1,4.6-0.1c0.4,0,0.5,0.2,0.5,0.6L383.2,93.7z"/>
		<path class="st6" d="M389.3,73.2l-4.7,0.1l-0.2-5.1l14.8-0.3c0.1,1.3,0.1,3.4,0.1,5l-5,0.1l-0.1,21.4c0,0.1-0.2,0.1-4.5,0.2
			c-0.1,0-0.3,0-0.3-0.2C389.5,86.4,389.6,78.8,389.3,73.2z"/>
		<path class="st6" d="M401.8,94.6c0,0-0.3-0.1-0.3-0.1L401.4,69h9.9l0.3,4.3l-5.6-0.1v6.4c2.7,0,2.9-0.1,3-0.1l0.2,4.4l-3.1,0.2
			c0,1.8,0,4.6,0,6.4l6.4,0.1c0.1,0.1,0.3,3.6,0.3,4.2L401.8,94.6z"/>
		<path class="st6" d="M424.5,94.2l-4.6-12.8l0.6,11.8l0,0c-0.2,0.1-0.4,0.3-4.5,0.5h-0.5c-0.2,0-0.4,0-0.5-0.1l-0.4-25.1l0.1-0.1
			c1.2,0,3-0.2,4.3-0.2c2.5,0,5.4,0.4,6.8,2.8c0.7,0.9,1,2.2,1,3.3v0.1c-0.1,2.4-1.1,4.5-2.8,5.7l5.5,13.7L424.5,94.2z M419.4,77.7
			h0.3c1.4,0,2.9-1,3-2.3v-0.2c0-2.2-0.6-3.9-2.5-4c-0.3,0-0.7,0.1-1.1,0.2L419.4,77.7z"/>
	</g>
	<g class="st4">
		<rect x="88.3" y="45.5" class="st7" width="73.1" height="47.2"/>
		<path class="st6" d="M90,77.5c0-2.6-0.1-5.1-0.1-7.7c0-1.8-0.1-11.7-0.1-17c0-2,0-3.4,0-3.5c0-1,0-1.6,0.3-1.9
			c2.3,0,4.5,0.2,6.8,0.2c0,2.1,0.1,4,0.1,6.1c0,0.5-0.1,4.6-0.2,30c0,0.4-1.3,0.5-2.3,0.5h-0.8c-0.1,0-0.9,0-1.7,0
			c-1.1,0-2.2,0-2.2-0.3C89.9,81.7,90,79.6,90,77.5z"/>
		<path class="st6" d="M99.9,71.6c0-8.4,6.8-9.4,6.8-10.3c0-1.2-2.9-1.6-2.9-6v-0.2c0.1-7.1,5.5-9.7,11.4-9.7c4.7,0,8.6,3.8,8.6,8.4
			c0,3-1.1,4.8-3.4,6.6c5,0.4,6.9,6.6,6.9,10.8c0,10.3-6.6,12.5-15.9,12.5C104.3,83.7,99.9,78.8,99.9,71.6z M114.4,77.6
			c3.8,0,5.4-1.8,5.4-5.5c0-4.8-1.8-7.7-6.7-7.7c-4.3,0-6.1,3.8-6.1,7.6C107,76.1,110.6,77.6,114.4,77.6z M113.6,57.4
			c2.1,0,3-1.2,3-2.7c0-2.3-1.7-3.6-3.3-3.6c-1.4,0-2.8,1.1-2.8,3.4C110.5,56.3,111.8,57.4,113.6,57.4z"/>
		<path class="st6" d="M130.3,62.3l0.2-0.1c1.2,0,2.4,0,3.8,0h2.5l0-6.3c0-1,0.1-1.9,0.6-1.9c0,0,0.9,0.1,1.6,0.1h3l0,0.2
			c0,0.9,0.1,1.9,0.1,2.8l0,5.1h1.1c2.3,0,4.4,0,6.2-0.1v4.8h-7.4l0,8.3l-5,0l-0.2,0v-8.3h-6.4L130.3,62.3z"/>
	</g>
</g>
</svg>
