<svg id="Layer_1" data-name="Layer 1" xmlns="http://www.w3.org/2000/svg" viewBox="0 0 224.52 64.15"><defs><clipPath id="clip-path" transform="translate(-1.45 -1.65)"><path fill="none" d="M1.45 1.65h224.52V65.8H1.45z"/></clipPath></defs><g clip-path="url(#clip-path)"><path d="M87.49 26.07a.74.74 0 0 1-.48 1l-4.25 1.26c-.52.15-.79 0-1-.52a4.38 4.38 0 0 0-4.69-3.35c-4 0-5.37 2.37-5.37 5.56v7.34c0 3.19 1.35 5.56 5.37 5.56 3.31 0 5-1.54 5-4.89v-1h-4.32a.55.55 0 0 1-.59-.63v-3.98a.56.56 0 0 1 .59-.63h9.62a.55.55 0 0 1 .63.59v6.07c0 5.8-4.26 10.17-10.88 10.17-7.85 0-11.52-4.65-11.52-11v-7.76c0-6.39 3.67-11 11.52-11 6.35 0 9.22 3.62 10.37 7.25m21.6 7.22v14.23a.56.56 0 0 1-.59.59h-4.34a.57.57 0 0 1-.63-.59v-2.33a6.85 6.85 0 0 1-6 3.35c-4.1 0-6.75-2.64-6.75-6.7s2.49-6.31 8.56-6.74a25.91 25.91 0 0 1 3.94 0v-1.62c0-2.13-1.1-3-3-3a2.71 2.71 0 0 0-3 2c-.2.47-.35.55-.79.43l-4.34-1.1c-.43-.12-.47-.36-.39-.67.59-3.12 3.55-5.41 8.75-5.41 5.48 0 8.56 2.61 8.56 7.5m-5.8 7.45v-1.99a24.56 24.56 0 0 0-3.47.12c-2.2.27-3.39.94-3.39 2.64 0 1.53 1 2.36 2.72 2.36a4.21 4.21 0 0 0 4.14-3.07m21.48-14.95a5.51 5.51 0 0 1 5.4 4c1.62-2.37 3.59-4 6.35-4 3.82 0 6 3 6 7.57v14.16a.64.64 0 0 1-.71.59h-4.53a.64.64 0 0 1-.71-.59V34.43c0-2-.87-3.16-2.41-3.16s-2.8 1.35-3.39 3.4v12.89a.55.55 0 0 1-.55.59h-4.9c-.35 0-.51-.24-.51-.59V34.43c0-2-.87-3.16-2.41-3.16s-2.84 1.42-3.39 3.44v12.85a.54.54 0 0 1-.59.59h-4.81a.54.54 0 0 1-.59-.59v-20.7a.55.55 0 0 1 .59-.55h4.61a.54.54 0 0 1 .59.55v2.48c1.31-1.81 3.2-3.51 6-3.51m42.51.48c.12.51 0 .9-.51 1l-4.18 1.22a.66.66 0 0 1-.94-.51c-.6-2-1.62-3.55-4.54-3.55-3.59 0-4.73 2.37-4.73 5.56v7.34c0 3.19 1.3 5.56 4.73 5.56 3.08 0 4.26-1.74 4.73-3.91a.65.65 0 0 1 .95-.51l4.19 1.36a.77.77 0 0 1 .51 1c-1 4.26-4.06 7.72-10.45 7.72-7.17 0-10.8-4.65-10.8-11v-7.73c0-6.39 3.7-11 10.8-11 6.23 0 9.15 3.31 10.25 7.49m20.98 6.98v14.23a.56.56 0 0 1-.59.59h-4.34a.57.57 0 0 1-.63-.59v-2.33a6.85 6.85 0 0 1-6 3.35c-4.1 0-6.74-2.64-6.74-6.7s2.48-6.31 8.55-6.74a26 26 0 0 1 3.95 0v-1.62c0-2.13-1.11-3-3-3a2.73 2.73 0 0 0-3 2c-.19.47-.35.55-.79.43l-4.33-1.1c-.44-.12-.48-.36-.4-.67.59-3.12 3.55-5.41 8.76-5.41 5.48 0 8.55 2.61 8.55 7.5m-5.79 7.45v-1.99a24.46 24.46 0 0 0-3.47.12c-2.21.27-3.39.94-3.39 2.64 0 1.53 1 2.36 2.72 2.36a4.22 4.22 0 0 0 4.14-3.07m22.69-14.08v4.22c0 .51-.2.71-.71.71h-.64c-3.15 0-5 1.42-5.63 3.79v12.14a.55.55 0 0 1-.52.59h-5a.55.55 0 0 1-.52-.59v-20.7a.53.53 0 0 1 .59-.55h4.5c.47 0 .59.31.59.63v2.92a6.85 6.85 0 0 1 6.39-3.86c.79 0 1 .12 1 .67M212.92 39v.83c0 2.29 1.19 3.9 4 3.9s3.47-1 4.18-2.32c.35-.59.51-.67 1.14-.4l3.11 1.58c.64.32.68.63.4 1.22-1.34 3-4.69 4.77-8.87 4.77-6.31 0-9.62-3.74-9.62-8.87v-5c0-5 3.11-8.88 9.58-8.88 6.15 0 9.15 3.91 9.15 8.76v3.47c0 .59-.2 1-1 1zm0-4.61v.75h7.61v-.75a3.48 3.48 0 0 0-3.78-3.79 3.52 3.52 0 0 0-3.83 3.79" transform="translate(-1.45 -1.65)"/><path d="M28.72 1.65H2.26a.8.8 0 0 0-.81.8v38.48a24.87 24.87 0 0 0 24.87 24.86h2.4a24.86 24.86 0 0 0 24.86-24.86V26.51A24.86 24.86 0 0 0 28.72 1.65m16.87 39.7c0 9.36-6.87 16.43-17.57 16.43-12.67 0-18.59-7.52-18.59-17.78V27.47C9.43 17.15 15.35 9.64 28 9.64c10.25 0 14.9 5.86 16.75 11.72A1.19 1.19 0 0 1 44 23l-6.88 2c-.82.25-1.27 0-1.52-.83-1.09-3.5-3.38-5.41-7.58-5.41-6.5 0-8.66 3.82-8.66 9v11.87c0 5.16 2.16 9 8.66 9 5.35 0 8.15-2.49 8.15-7.9v-1.55H29a.89.89 0 0 1-1-1v-6.57a.93.93 0 0 1 1-1h15.57a.89.89 0 0 1 1 .95z" transform="translate(-1.45 -1.65)" fill="#2e008b"/><path d="M71.47 56.66a.15.15 0 0 1-.09.22l-.7.22c-.11 0-.17 0-.22-.09a1.7 1.7 0 0 0-1.79-1.27 1.78 1.78 0 0 0-2 2v2.65a1.78 1.78 0 0 0 2 2c1.13 0 1.87-.52 1.87-1.69v-1H68.9c-.09 0-.14 0-.14-.15V59c0-.1 0-.15.14-.15h2.54a.14.14 0 0 1 .16.15v1.84a2.65 2.65 0 0 1-2.93 2.66 2.76 2.76 0 0 1-3.07-3v-2.81a2.76 2.76 0 0 1 3.07-3 2.69 2.69 0 0 1 2.8 1.94m5.4 4.78v-1a11.26 11.26 0 0 0-1.42 0c-.88.1-1.41.41-1.41 1.14a1 1 0 0 0 1.18 1.06 1.76 1.76 0 0 0 1.65-1.19m1-2.56v4.37c0 .09 0 .13-.15.13h-.7c-.1 0-.15 0-.15-.13v-.83A2.18 2.18 0 0 1 75 63.47a1.82 1.82 0 0 1-2-1.87c0-1.17.79-1.81 2.33-1.93a10.94 10.94 0 0 1 1.51 0v-.74c0-.84-.49-1.19-1.28-1.19a1.14 1.14 0 0 0-1.29.84c0 .11-.08.12-.2.1l-.68-.19c-.11 0-.14-.08-.11-.17.21-.88 1-1.45 2.31-1.45s2.28.64 2.28 2m4.6-2.02A1.55 1.55 0 0 1 84 58a2.23 2.23 0 0 1 1.86-1.15c1 0 1.69.76 1.69 1.95v4.41c0 .1-.06.14-.16.14h-.69c-.11 0-.16 0-.16-.14V59c0-.78-.35-1.2-1-1.2a1.63 1.63 0 0 0-1.39 1.2v4.23c0 .1 0 .14-.14.14h-.77c-.11 0-.14 0-.14-.14V59c0-.78-.34-1.2-1-1.2a1.7 1.7 0 0 0-1.39 1.2v4.18c0 .1 0 .14-.14.14h-.76c-.11 0-.14 0-.14-.14V57.1c0-.08 0-.13.14-.13h.74c.11 0 .14.05.14.13v.84a2.16 2.16 0 0 1 1.78-1.09m7.94 2.59v1.48A1.51 1.51 0 0 0 92 62.53c.92 0 1.47-.54 1.47-1.61v-1.49c0-1.06-.55-1.63-1.47-1.63a1.53 1.53 0 0 0-1.56 1.64m0-4.78v3.19a2.1 2.1 0 0 1 1.88-1 2.18 2.18 0 0 1 2.2 2.43v1.77a2.18 2.18 0 0 1-2.24 2.42 2.1 2.1 0 0 1-1.86-1v.74c0 .09-.07.12-.14.12h-.74c-.09 0-.14 0-.14-.12v-8.55a.12.12 0 0 1 .13-.13h.79c.09 0 .12 0 .12.13m6.76 0v8.55c0 .1 0 .14-.14.14h-.76c-.12 0-.15 0-.15-.14v-8.55c0-.09 0-.14.15-.14h.76a.12.12 0 0 1 .14.14m2.8 2.45v6.11c0 .09 0 .13-.13.13h-.76c-.12 0-.15 0-.15-.13v-6.11c0-.09 0-.13.15-.13h.76c.1 0 .13 0 .13.13m0-2.41v1.12c0 .11 0 .17-.17.17h-.7a.15.15 0 0 1-.17-.17V54.7a.15.15 0 0 1 .17-.17h.7c.13 0 .17.06.17.17m2.85 4.35v4.17c0 .09 0 .13-.13.13H102c-.12 0-.15 0-.15-.13V57.1c0-.08 0-.13.14-.13h.74c.11 0 .14.05.14.13v.84a2.43 2.43 0 0 1 2-1.09 1.84 1.84 0 0 1 1.87 2.1v4.27c0 .09 0 .13-.15.13h-.76c-.1 0-.15 0-.15-.13v-4.1c0-.82-.37-1.3-1.17-1.3a1.82 1.82 0 0 0-1.61 1.23m6.3.1a1.28 1.28 0 0 0 1.43 1.38 1.22 1.22 0 0 0 1.37-1.35 1.4 1.4 0 0 0-2.8 0m3.35 4.8c0-.46-.26-.89-1.2-.89h-1.17c-.88 0-1.15.45-1.15.91 0 .64.5 1.06 1.73 1.06s1.79-.44 1.79-1.08m1-.07c0 1-.78 1.91-2.85 1.91-1.91 0-2.66-.72-2.66-1.72a1.48 1.48 0 0 1 1-1.38 1.06 1.06 0 0 1-.45-.81 1 1 0 0 1 .65-.9 2 2 0 0 1-1-1.82 2.1 2.1 0 0 1 2.38-2.19h2.79c.08 0 .12.05.12.14v.57c0 .11-.06.15-.14.15h-1.11a1.79 1.79 0 0 1 .65 1.47c0 1.18-.79 2-2.31 2h-.52c-.44 0-.63.2-.63.44s.2.44.63.44h1.37c1.5 0 2.09.75 2.09 1.68m9.54-7.4a.13.13 0 0 1-.11.19l-.65.25a.16.16 0 0 1-.21-.1 1.62 1.62 0 0 0-1.65-1.12c-1 0-1.57.47-1.57 1.24s.42 1 2 1.64 2.26 1.32 2.26 2.51a2.46 2.46 0 0 1-2.75 2.38 2.62 2.62 0 0 1-2.8-1.94c0-.12 0-.17.1-.21l.68-.22c.13 0 .18 0 .21.12a1.67 1.67 0 0 0 1.81 1.26c1 0 1.65-.5 1.65-1.31s-.38-1.1-1.83-1.66c-1.74-.69-2.4-1.37-2.4-2.55a2.36 2.36 0 0 1 2.65-2.25 2.58 2.58 0 0 1 2.63 1.77m1.59 4.89v-4.27c0-.09.05-.14.15-.14h.76c.1 0 .15.05.15.14v4.09c0 .83.37 1.31 1.16 1.31a1.8 1.8 0 0 0 1.61-1.24v-4.16c0-.09 0-.14.15-.14h.75c.12 0 .15.05.15.14v6.1c0 .09 0 .14-.14.14h-.74a.12.12 0 0 1-.14-.14v-.83a2.41 2.41 0 0 1-2 1.1 1.85 1.85 0 0 1-1.87-2.1m10.76-.47v-1.52a1.39 1.39 0 0 0-1.47-1.6 1.51 1.51 0 0 0-1.55 1.61v1.5a1.52 1.52 0 0 0 1.56 1.63c.92 0 1.47-.56 1.47-1.62m-3.94 4.77a.12.12 0 0 1-.13-.13V57.1c0-.09.05-.13.14-.13h.74a.12.12 0 0 1 .14.13v.72a2.15 2.15 0 0 1 1.86-1 2.18 2.18 0 0 1 2.24 2.41v1.79a2.19 2.19 0 0 1-2.2 2.43 2.06 2.06 0 0 1-1.87-1v3.06a.12.12 0 0 1-.13.13zm10.71-4.77v-1.52a1.39 1.39 0 0 0-1.47-1.6 1.51 1.51 0 0 0-1.55 1.61v1.5a1.52 1.52 0 0 0 1.55 1.63c.92 0 1.47-.56 1.47-1.62m-3.94 4.77a.12.12 0 0 1-.13-.13V57.1c0-.09.05-.13.14-.13h.74a.12.12 0 0 1 .14.13v.72a2.15 2.15 0 0 1 1.86-1 2.18 2.18 0 0 1 2.25 2.41v1.79a2.19 2.19 0 0 1-2.21 2.43 2.08 2.08 0 0 1-1.87-1v3.06a.12.12 0 0 1-.13.13zm7.54-6.3V61a1.53 1.53 0 1 0 3.06 0v-1.62a1.53 1.53 0 1 0-3.06 0m4.11-.05V61a2.58 2.58 0 0 1-5.16 0v-1.64a2.58 2.58 0 0 1 5.16 0m4.79-2.36v.71c0 .11 0 .15-.16.15h-.13a1.85 1.85 0 0 0-1.82 1.27v4.06c0 .09-.06.12-.13.12h-.79a.11.11 0 0 1-.12-.12V57.1c0-.1 0-.13.14-.13h.72c.1 0 .15.05.15.14v1a2.14 2.14 0 0 1 2-1.19c.15 0 .19 0 .19.15m3-1.6V57h1.36c.1 0 .14.05.14.16v.57c0 .11 0 .15-.14.15h-1.36v3.69c0 .57.31.83.89.83h.46c.1 0 .15 0 .15.14v.65c0 .11 0 .15-.15.15h-.61a1.55 1.55 0 0 1-1.77-1.62v-3.83h-.87c-.08 0-.13 0-.13-.15v-.57c0-.11.05-.16.13-.16h.88v-1.54c0-.08 0-.13.15-.13h.72c.12 0 .15 0 .15.13m11.46 1.09c0 .12 0 .21-.17.26l-1.12.41a.21.21 0 0 1-.3-.13 1.22 1.22 0 0 0-1.27-.79c-.69 0-1.14.33-1.14.83s.35.71 1.9 1.25 2.18 1.28 2.18 2.51c0 1.47-1.26 2.59-3.08 2.59a2.82 2.82 0 0 1-3.06-2.06.2.2 0 0 1 .13-.26l1.21-.4c.16-.05.24 0 .28.16.15.65.61 1 1.43 1s1.25-.35 1.25-.87-.31-.7-1.57-1.14c-1.81-.65-2.5-1.37-2.5-2.71a2.67 2.67 0 0 1 2.93-2.46 2.78 2.78 0 0 1 2.9 1.85m3.6-1.04V57h1.2a.17.17 0 0 1 .19.19v1.05a.17.17 0 0 1-.19.18h-1.2v2.85c0 .37.2.58.68.58h.52c.12 0 .19.06.19.17v1.19c0 .12-.07.17-.19.17h-.8c-1.44 0-2.12-.76-2.12-1.88v-3.11h-.74a.17.17 0 0 1-.19-.18v-1.05a.17.17 0 0 1 .19-.19h.77v-1.41a.16.16 0 0 1 .17-.18h1.36c.11 0 .16.07.16.18m6.02 5.62v-.6a8.43 8.43 0 0 0-1 0c-.65.08-1 .28-1 .78s.3.7.8.7a1.25 1.25 0 0 0 1.22-.91m1.71-2.2v4.2a.17.17 0 0 1-.18.17h-1.28a.17.17 0 0 1-.18-.17v-.69a2 2 0 0 1-1.77 1 1.86 1.86 0 0 1-2-2c0-1.17.74-1.86 2.53-2a6.41 6.41 0 0 1 1.16 0V59a.77.77 0 0 0-.88-.87.81.81 0 0 0-.89.59c-.06.14-.1.17-.23.13l-1.28-.32c-.13 0-.14-.11-.11-.2.17-.92 1-1.59 2.57-1.59s2.53.76 2.53 2.2m5.22-1.94v1.25c0 .15-.06.2-.21.2h-.19a1.52 1.52 0 0 0-1.66 1.12v3.58a.15.15 0 0 1-.15.17h-1.46a.15.15 0 0 1-.15-.17v-6.1a.15.15 0 0 1 .17-.16h1.33a.16.16 0 0 1 .17.18V58a2 2 0 0 1 1.87-1.13c.23 0 .28 0 .28.2m3.42-1.51V57h1.2a.17.17 0 0 1 .18.19v1.05a.16.16 0 0 1-.18.18h-1.2v2.85c0 .37.2.58.67.58h.53a.16.16 0 0 1 .18.17v1.19c0 .12-.07.17-.18.17h-.81c-1.44 0-2.11-.76-2.11-1.88v-3.11h-.75a.16.16 0 0 1-.18-.18v-1.05a.17.17 0 0 1 .18-.19h.77v-1.41a.16.16 0 0 1 .18-.18h1.36a.16.16 0 0 1 .16.18m7.6 2.79c0 .1 0 .19-.14.23l-1.07.38c-.12 0-.18 0-.23-.13a1.06 1.06 0 0 0-1.1-.69c-.55 0-.87.21-.87.53s.23.44 1.46.77c1.43.38 2 1 2 2 0 1.24-1 2-2.6 2s-2.44-.57-2.77-1.55c0-.14 0-.21.17-.28l.94-.46c.14-.07.22 0 .29.14a1.28 1.28 0 0 0 1.3.79c.65 0 1-.21 1-.56s-.36-.52-1.51-.84c-1.41-.37-2-1-2-2 0-1.22 1-2 2.5-2a2.53 2.53 0 0 1 2.6 1.57M207.6 55v8.16c0 .1 0 .17-.18.17H206a.17.17 0 0 1-.18-.17v-3.22h-2.93v3.24a.16.16 0 0 1-.18.17h-1.46a.17.17 0 0 1-.18-.17V55a.17.17 0 0 1 .19-.17h1.45a.16.16 0 0 1 .18.17v3.24h2.93V55a.17.17 0 0 1 .18-.17h1.45c.13 0 .18.07.18.17m3.06 4.31v.22h2.24v-.22a1 1 0 0 0-1.11-1.12 1 1 0 0 0-1.13 1.12m0 1.36v.24a1 1 0 0 0 1.17 1.15 1.15 1.15 0 0 0 1.23-.68c.11-.18.16-.2.34-.12l.92.47c.19.09.2.18.12.36a2.71 2.71 0 0 1-2.62 1.4 2.52 2.52 0 0 1-2.85-2.61v-1.49a2.51 2.51 0 0 1 2.82-2.61 2.46 2.46 0 0 1 2.7 2.58v1c0 .17-.06.29-.31.29zm8.9-3.67v1.25c0 .15-.05.2-.21.2h-.18a1.52 1.52 0 0 0-1.66 1.12v3.58a.16.16 0 0 1-.15.17h-1.47a.15.15 0 0 1-.15-.17v-6.1a.15.15 0 0 1 .17-.16h1.33c.14 0 .17.09.17.18V58a2 2 0 0 1 1.87-1.13c.24 0 .28 0 .28.2m2.54 2.24v.22h2.24v-.22a1 1 0 0 0-1.11-1.12 1 1 0 0 0-1.13 1.12m0 1.36v.24a1 1 0 0 0 1.17 1.15 1.16 1.16 0 0 0 1.24-.68c.1-.18.15-.2.33-.12l.92.47c.19.09.2.18.12.36a2.71 2.71 0 0 1-2.62 1.4 2.52 2.52 0 0 1-2.83-2.61v-1.49a2.51 2.51 0 0 1 2.82-2.61 2.46 2.46 0 0 1 2.7 2.58v1c0 .17-.06.29-.31.29z" transform="translate(-1.45 -1.65)"/></g></svg>